<svg id="Layer_2" xmlns="http://www.w3.org/2000/svg" width="360" height="240" viewBox="0 0 360 240"><defs><style>.cls-1,.cls-2,.cls-3,.cls-4,.cls-5,.cls-6,.cls-7,.cls-8,.cls-9,.cls-10,.cls-11,.cls-12,.cls-13,.cls-14{fill:none;}.cls-15{fill:#fff;}.cls-15,.cls-2{stroke-linejoin:round;}.cls-15,.cls-2,.cls-7{stroke:#5f6368;}.cls-15,.cls-2,.cls-13{stroke-linecap:round;}.cls-3{opacity:.8;}.cls-3,.cls-5,.cls-16,.cls-6,.cls-10,.cls-11,.cls-12,.cls-13{stroke:#f6c;}.cls-17{clip-path:url(#clippath);}.cls-4,.cls-8,.cls-14{stroke:#dadce0;}.cls-4,.cls-14{stroke-linecap:square;}.cls-18{fill:#cef;}.cls-19{fill:rgba(204,102,255,.4);}.cls-20{fill:rgba(255,221,255,.4);}.cls-5{opacity:.4;}.cls-16{fill:#fde;}.cls-6{opacity:.25;}.cls-9{stroke:#6cf;}.cls-10{opacity:.6;}.cls-11{opacity:.15;}.cls-12{opacity:.05;}.cls-14{stroke-miterlimit:4;stroke-width:1px;}</style><clipPath id="clippath"><rect class="cls-1" x="-.11" width="360" height="240" rx="3" ry="3"/></clipPath></defs><g class="cls-17"><g><line class="cls-4" x1="59.89" y1="60.5" x2="59.89" y2="89.5"/><line class="cls-4" x1=".39" y1="60" x2="59.39" y2="60"/><line class="cls-4" x1=".39" y1="119.5" x2="119.39" y2="119.5"/><line class="cls-4" x1="119.39" y1=".5" x2="119.39" y2="59.5"/><path class="cls-8" d="M59.49,0C59.49,32.92,32.81,59.6-.11,59.6"/><path class="cls-8" d="M119.39,60C119.39,27.14,92.75,.5,59.89,.5"/><path class="cls-8" d="M.39,120C.39,87.14,27.03,60.5,59.89,60.5"/><circle class="cls-8" cx="89.99" cy="90.1" r="29.5"/><line class="cls-4" x1="179.89" y1="59.5" x2="179.89" y2="30.5"/><line class="cls-4" x1="239.39" y1="60" x2="180.39" y2="60"/><line class="cls-4" x1="239.39" y1=".5" x2="120.39" y2=".5"/><line class="cls-4" x1="120.39" y1="119.5" x2="120.39" y2="60.5"/><path class="cls-8" d="M180.29,120c0-32.92,26.68-59.6,59.6-59.6"/><path class="cls-8" d="M120.39,60c0,32.86,26.64,59.5,59.5,59.5"/><path class="cls-8" d="M239.39,0c0,32.86-26.64,59.5-59.5,59.5"/><circle class="cls-8" cx="149.79" cy="29.9" r="29.5"/><line class="cls-4" x1="299.89" y1="60.5" x2="299.89" y2="89.5"/><line class="cls-4" x1="240.39" y1="60" x2="299.39" y2="60"/><line class="cls-4" x1="240.39" y1="119.5" x2="359.39" y2="119.5"/><line class="cls-4" x1="359.39" y1=".5" x2="359.39" y2="59.5"/><path class="cls-8" d="M299.49,0c0,32.92-26.68,59.6-59.6,59.6"/><path class="cls-8" d="M359.39,60c0-32.86-26.64-59.5-59.5-59.5"/><path class="cls-8" d="M240.39,120c0-32.86,26.64-59.5,59.5-59.5"/><circle class="cls-8" cx="329.99" cy="90.1" r="29.5"/><line class="cls-14" x1="59.89" y1="180.5" x2="59.89" y2="209.5"/><line class="cls-4" x1="119.39" y1="180" x2="60.39" y2="180"/><line class="cls-4" x1="119.39" y1="239.5" x2=".39" y2="239.5"/><line class="cls-14" x1=".39" y1="120.5" x2=".39" y2="179.5"/><path class="cls-8" d="M60.29,120c0,32.92,26.68,59.6,59.6,59.6"/><path class="cls-8" d="M.39,180c0-32.86,26.64-59.5,59.5-59.5"/><path class="cls-8" d="M119.39,240c0-32.86-26.64-59.5-59.5-59.5"/><circle class="cls-8" cx="29.79" cy="210.1" r="29.5"/><line class="cls-14" x1="179.89" y1="179.5" x2="179.89" y2="150.5"/><line class="cls-4" x1="120.39" y1="180" x2="179.39" y2="180"/><line class="cls-4" x1="120.39" y1="120.5" x2="239.39" y2="120.5"/><line class="cls-14" x1="239.39" y1="239.5" x2="239.39" y2="180.5"/><path class="cls-8" d="M179.49,240c0-32.92-26.68-59.6-59.6-59.6"/><path class="cls-8" d="M239.39,180c0,32.86-26.64,59.5-59.5,59.5"/><path class="cls-8" d="M120.39,120c0,32.86,26.64,59.5,59.5,59.5"/><circle class="cls-8" cx="209.99" cy="149.9" r="29.5"/><line class="cls-14" x1="299.89" y1="180.5" x2="299.89" y2="209.5"/><line class="cls-4" x1="359.39" y1="180" x2="300.39" y2="180"/><line class="cls-4" x1="359.39" y1="239.5" x2="240.39" y2="239.5"/><line class="cls-14" x1="240.39" y1="120.5" x2="240.39" y2="179.5"/><path class="cls-8" d="M300.29,120c0,32.92,26.68,59.6,59.6,59.6"/><path class="cls-8" d="M240.39,180c0-32.86,26.64-59.5,59.5-59.5"/><path class="cls-8" d="M359.39,240c0-32.86-26.64-59.5-59.5-59.5"/><circle class="cls-8" cx="269.79" cy="210.1" r="29.5"/></g></g><rect class="cls-15" x="60.08" y="40" width="240" height="160"/><rect class="cls-19" x="60" y="47.71" width="240" height="20.79"/><rect class="cls-20" x="60" y="40" width="239.78" height="7.71"/><path class="cls-18" d="M60,94s38.83-.02,57,5.67c0,0,8.15,1.46,20.22,5.2,7.14,2.54,12.46,4.91,13.69,5.42,5.57,2.3,6.92,2.74,16.89,7.41,4.28,2.01,4.84,1.5,13.19,6.01,5.45,2.94,13.61,6.46,20.53,9.44,10.92,4.7,27.25,11.74,48.85,16.14,5.69,1.16,10.38,1.86,13.35,2.25,4.72,.51,9.67,.86,14.84,1.2,7.97,.52,17.04,.89,21.45,.26v6H60V94Z"/><rect class="cls-19" x="60" y="159" width="240" height="11"/><rect class="cls-20" x="60" y="170" width="240" height="30"/><rect class="cls-16" x="115" y="176" width="130" height="18" rx="2.03" ry="2.03"/><circle class="cls-6" cx="170.15" cy="100.97" r="15.19"/><circle class="cls-5" cx="183.36" cy="106.97" r="15.19"/><circle class="cls-10" cx="195.71" cy="113.19" r="15.19"/><circle class="cls-3" cx="208.12" cy="118.47" r="15.19"/><circle class="cls-16" cx="223.93" cy="124.86" r="15.19"/><line class="cls-13" x1="231" y1="174.5" x2="231" y2="196"/><line class="cls-13" x1="216" y1="180" x2="216" y2="191"/><line class="cls-13" x1="187" y1="180" x2="187" y2="191"/><line class="cls-13" x1="158" y1="180" x2="158" y2="191"/><line class="cls-13" x1="129" y1="180" x2="129" y2="191"/><path class="cls-9" d="M60,94l10.74,.02c24.4-.11,50.26,4.98,72.7,13.33,23.41,8.72,49.09,23.08,72.56,31.64,24.45,8.92,44,14,72,14h12"/><line class="cls-9" x1="209" y1="136.31" x2="209" y2="159"/><line class="cls-9" x1="94" y1="95.39" x2="94" y2="159"/><line class="cls-9" x1="117" y1="99.67" x2="117" y2="159"/><line class="cls-9" x1="71" y1="94.02" x2="71" y2="159"/><line class="cls-9" x1="140" y1="106.11" x2="140" y2="159"/><line class="cls-9" x1="162" y1="115" x2="162" y2="159"/><line class="cls-9" x1="186" y1="126.18" x2="186" y2="159"/><line class="cls-9" x1="232" y1="144.45" x2="232" y2="159"/><line class="cls-9" x1="255" y1="150.34" x2="255" y2="158.75"/><line class="cls-9" x1="278" y1="153" x2="278" y2="159"/><line class="cls-9" x1="267.72" y1="152" x2="59.93" y2="152"/><line class="cls-9" x1="194.32" y1="130" x2="60" y2="130"/><line class="cls-9" x1="139.68" y1="106" x2="60" y2="106"/><path class="cls-12" d="M102.97,68.37c2.75,2.75,4.45,6.55,4.45,10.74,0,8.39-6.8,15.19-15.19,15.19s-15.19-6.8-15.19-15.19c0-4.13,1.65-7.88,4.33-10.62"/><line class="cls-7" x1="300" y1="170" x2="60" y2="170"/><line class="cls-7" x1="300" y1="159" x2="60" y2="159"/><line class="cls-7" x1="300" y1="47.71" x2="60.16" y2="47.46"/><line class="cls-7" x1="300" y1="68.5" x2="60" y2="68.5"/><rect class="cls-2" x="60" y="40" width="240" height="160"/><circle class="cls-11" cx="130.19" cy="86.11" r="15.19"/></svg>